<?xml version="1.0" encoding="UTF-8" standalone="no"?>
<svg
   xmlns:dc="http://purl.org/dc/elements/1.1/"
   xmlns:cc="http://creativecommons.org/ns#"
   xmlns:rdf="http://www.w3.org/1999/02/22-rdf-syntax-ns#"
   xmlns:svg="http://www.w3.org/2000/svg"
   xmlns="http://www.w3.org/2000/svg"
   xmlns:sodipodi="http://sodipodi.sourceforge.net/DTD/sodipodi-0.dtd"
   xmlns:inkscape="http://www.inkscape.org/namespaces/inkscape"
   version="1.1"
   id="svg3623"
   viewBox="0 0 700.00002 300"
   height="300"
   width="700"
   inkscape:version="0.91 r13725"
   sodipodi:docname="drawing.svg">
  <sodipodi:namedview
     pagecolor="#ffffff"
     bordercolor="#666666"
     borderopacity="1"
     objecttolerance="10"
     gridtolerance="10"
     guidetolerance="10"
     inkscape:pageopacity="0"
     inkscape:pageshadow="2"
     inkscape:window-width="1331"
     inkscape:window-height="744"
     id="namedview3381"
     showgrid="false"
     inkscape:zoom="0.22425739"
     inkscape:cx="372.04724"
     inkscape:cy="526.1811"
     inkscape:window-x="35"
     inkscape:window-y="24"
     inkscape:window-maximized="1"
     inkscape:current-layer="svg3623"
     units="px" />
  <defs
     id="defs3625" />
  <metadata
     id="metadata3628">
    <rdf:RDF>
      <cc:Work
         rdf:about="">
        <dc:format>image/svg+xml</dc:format>
        <dc:type
           rdf:resource="http://purl.org/dc/dcmitype/StillImage" />
        <dc:title></dc:title>
      </cc:Work>
    </rdf:RDF>
  </metadata>
  <rect
     style="fill:#0000ff;fill-rule:evenodd;stroke:#000000;stroke-width:0.47452781px;stroke-linecap:butt;stroke-linejoin:miter;stroke-opacity:1"
     id="rect3383"
     width="1851.0778"
     height="1017.2144"
     x="-548.73969"
     y="-1439.3359" />
  <g
     id="layer1"
     transform="translate(-17.836648,-368.87424)">
    <g
       transform="translate(-3.40654,79.78487)"
       id="g3599">
      <path
         style="fill:#ffffff"
         d="m 24.039213,589.98492 c 0,-1.01218 107.330157,-252.64302 112.060557,-262.72105 0.86671,-1.8465 3.63531,-5.55886 6.15244,-8.24969 7.88966,-8.43407 17.99103,-14.60846 30.89457,-18.88408 l 6.4664,-2.14266 219.85759,-0.59694 c 120.92167,-0.32832 242.48997,-0.51719 270.15177,-0.41971 l 50.29419,0.17723 -53.01657,124.76347 c -29.15911,68.61991 -54.25444,127.19913 -55.76739,130.17604 -3.40896,6.70751 -10.83528,16.65533 -15.6017,20.89907 -8.141,7.24822 -17.00336,11.88934 -30.05889,15.7415 l -7.00406,2.06662 -267.21445,0.1985 c -243.562954,0.18092 -267.214457,0.0917 -267.214457,-1.0083 z m 405.100917,-42.84414 127.04573,-0.46581 3.80377,-1.86825 c 4.2051,-2.06538 11.67049,-9.05427 13.5463,-12.68169 2.67622,-5.17523 12.00955,-30.19423 11.6315,-31.17945 -0.34498,-0.89898 -36.01776,-1.05461 -238.73531,-1.0415 l -238.32971,0.0154 -9.416008,22.76706 c -5.224931,12.63344 -9.214244,23.29283 -8.96272,23.9483 0.407021,1.06068 11.267068,1.17054 106.411998,1.07647 58.2773,-0.0576 163.1293,-0.31437 233.00445,-0.57056 z M 190.60149,488.75112 c 7.51347,-2.10955 13.86478,-5.70247 18.62007,-10.53333 l 4.50354,-4.5751 18.34345,-43.36292 18.34345,-43.36291 67.6826,0.25045 67.68261,0.25047 9.67072,-22.3123 c 5.31889,-12.27176 9.89283,-22.91482 10.1643,-23.65126 0.46993,-1.27478 -4.75286,-1.32948 -108.94896,-1.14113 l -109.44256,0.19784 -3.74512,1.84324 c -2.05981,1.01378 -5.66565,3.76377 -8.01296,6.11108 -4.01492,4.01492 -4.68043,5.2582 -11.22991,20.97935 l -6.96207,16.71151 22.27573,0.38037 22.27573,0.38038 -20.80407,51.29286 c -11.44223,28.21107 -20.80417,51.49011 -20.80432,51.73119 -5.8e-4,0.98529 26.30996,-0.0449 30.38777,-1.18979 z m 138.00945,0.80333 c 6.46594,-1.66711 13.00574,-5.31236 16.32977,-9.10213 2.18837,-2.49498 6.40797,-11.72542 19.34523,-42.31799 9.10051,-21.51985 16.54638,-39.57649 16.54638,-40.12588 0,-0.66463 -0.57279,-0.84538 -1.71169,-0.54017 -0.94144,0.2523 -12.36826,0.4634 -25.39293,0.46911 l -23.68123,0.0104 -0.97378,2.35088 c -1.13954,2.7511 -1.35295,2.74383 -11.76324,-0.40042 -13.86731,-4.1884 -24.38705,-3.27628 -37.08862,3.21579 -15.08681,7.71122 -27.19752,23.35102 -31.87899,41.16863 -2.01768,7.67924 -2.16641,19.30726 -0.3269,25.55626 2.77356,9.42204 6.18244,12.91286 16.7367,17.139 7.93388,3.17688 13.91449,3.64971 20.01163,1.58214 6.01789,-2.04069 7.82171,-2.06339 7.82171,-0.0985 0,1.44361 0.63586,1.51495 15.40525,1.72836 8.47289,0.12243 15.527,0.30069 15.67582,0.39613 0.14881,0.0954 2.37401,-0.3688 4.94489,-1.03165 z m 110.93671,-1.12335 c 7.62462,-2.56855 13.42768,-5.87853 17.66106,-10.07362 3.9229,-3.8874 4.30332,-4.69593 22.57504,-47.9799 l 18.58489,-44.02585 67.66674,0.28256 67.66674,0.28257 10.23918,-23.40101 c 5.63155,-12.87055 10.10008,-23.49496 9.93006,-23.6098 -0.17002,-0.11483 -49.77708,-0.0257 -110.23792,0.19805 l -109.92879,0.40683 -6.56207,3.20919 c -10.39505,5.08372 -12.03528,7.12937 -20.64351,25.74609 -4.07477,8.81235 -7.40868,16.25367 -7.40868,16.53625 0,0.28258 11.38927,0.60392 25.30949,0.71409 l 25.30949,0.20031 -20.71465,50.97044 c -11.39306,28.03375 -20.7283,51.2272 -20.74497,51.54101 -0.0167,0.31381 5.97141,0.57057 13.30685,0.57057 11.45571,0 13.99369,-0.22117 17.99105,-1.56778 z m 92.85652,0.0466 c 5.31025,-2.01831 8.18626,-2.01843 8.18626,-3.7e-4 0,1.4771 0.50717,1.52151 17.37822,1.52151 15.44848,0 17.87718,-0.17072 21.87164,-1.53738 5.30324,-1.81443 11.31963,-5.78551 14.05819,-9.27902 1.83758,-2.34413 34.93928,-79.40642 34.93928,-81.34024 0,-0.6721 -3.44453,-0.77056 -13.8155,-0.3949 -7.59853,0.27525 -19.02535,0.50044 -25.39293,0.50044 l -11.57742,0 -0.94534,2.28225 c -0.51994,1.25525 -1.4494,2.28226 -2.06546,2.28226 -0.61606,0 -4.59701,-1.1126 -8.84655,-2.47244 -6.93116,-2.21796 -8.62693,-2.46786 -16.4751,-2.42785 -7.66301,0.0391 -9.4484,0.30861 -14.38755,2.172 -18.10334,6.82988 -31.15932,20.70962 -37.77616,40.15961 -4.40962,12.96194 -4.07994,26.48206 0.88888,36.45325 2.47902,4.9748 10.13007,9.79841 19.70629,12.42385 5.45915,1.4967 9.6803,1.39513 14.25325,-0.34296 l 0,-10e-6 z m -113.71691,-50.88943 7.5885,-18.93743 -16.82589,-0.53172 c -9.25424,-0.29245 -18.33059,-0.41466 -20.16967,-0.27159 l -3.34379,0.26014 -7.11864,17.49732 c -3.91525,9.62352 -7.32598,18.26758 -7.57941,19.20901 l -0.46077,1.71169 20.16059,0 20.1606,0 7.58848,-18.93742 z"
         id="path3593"
         inkscape:connector-curvature="0" />
      <path
         style="fill:#ffffff"
         d="m 288.86496,466.11465 c -2.2462,-1.24497 -3.82492,-3.98354 -3.86055,-6.69681 -0.0346,-2.63336 3.19671,-12.86862 6.11862,-19.38102 3.22977,-7.19854 8.81317,-15.29108 11.5134,-16.68742 4.70056,-2.43075 12.01039,1.42284 12.01039,6.33164 0,3.7003 -2.17672,10.84527 -6.20826,20.37831 -4.44018,10.49929 -6.899,14.49243 -9.86992,16.02875 -2.61164,1.35053 -7.29183,1.36334 -9.70368,0.0265 z"
         id="path3595"
         inkscape:connector-curvature="0" />
      <path
         style="fill:#ffffff"
         d="m 529.41788,466.4534 c -3.3738,-2.05715 -4.3072,-4.15692 -3.78981,-8.52551 0.97928,-8.26842 8.49972,-24.99202 13.97944,-31.08679 2.96845,-3.30163 3.78357,-3.78848 6.34289,-3.78848 1.6152,0 3.83435,0.40899 4.93145,0.90886 2.11179,0.9622 4.16288,4.16533 4.16288,6.50106 0,4.85888 -8.85882,27.70046 -12.72127,32.80052 -2.0192,2.66619 -5.78206,4.67599 -8.74556,4.67114 -0.95487,-0.002 -2.82688,-0.66792 -4.16002,-1.4808 z"
         id="path3597"
         inkscape:connector-curvature="0" />
    </g>
  </g>
</svg>
