<?xml version="1.0" encoding="UTF-8" standalone="no"?>
<!-- Created with Inkscape (http://www.inkscape.org/) -->
<svg xmlns:rdf="http://www.w3.org/1999/02/22-rdf-syntax-ns#" xmlns="http://www.w3.org/2000/svg" height="61.341mm" width="136.39mm" version="1.1" xmlns:cc="http://creativecommons.org/ns#" xmlns:dc="http://purl.org/dc/elements/1.1/" viewBox="0 0 483.27149 217.35157">
 <metadata>
  <rdf:RDF>
   <cc:Work rdf:about="">
    <dc:format>image/svg+xml</dc:format>
    <dc:type rdf:resource="http://purl.org/dc/dcmitype/StillImage"/>
    <dc:title/>
   </cc:Work>
  </rdf:RDF>
 </metadata>
 <g fill-rule="evenodd" transform="translate(-129.79 -366.54)">
  <path style="color-rendering:auto;text-decoration-color:#000000;color:#000000;isolation:auto;mix-blend-mode:normal;shape-rendering:auto;solid-color:#000000;block-progression:tb;text-decoration-line:none;text-decoration-style:solid;image-rendering:auto;white-space:normal;text-indent:0;text-transform:none" d="m279.52 366.54c-16.212 0-30.767 2.1618-42.904 8.0234-12.138 5.8616-21.84 15.438-28.291 30.156l-78.533 179.17 351.88-0.0312c10.149-0.00089 24.088-4.5226 37.039-13.008 12.951-8.4852 24.906-20.95 30.941-36.885l63.416-167.43h-333.54z" fill="#d60900"/>
  <path style="color-rendering:auto;text-decoration-color:#000000;color:#000000;isolation:auto;mix-blend-mode:normal;shape-rendering:auto;solid-color:#000000;block-progression:tb;text-decoration-line:none;text-decoration-style:solid;image-rendering:auto;white-space:normal;text-indent:0;text-transform:none" d="m597.28 377.58-322.12 0.5h-0.002c-11.148 0.0937-20.829 0.57541-29.76 4.2539-8.9303 3.6785-17.066 10.556-25.105 23.32l-0.0195 0.0293-73.764 167.63 337.68-0.0273c18.922-0.002 45.304-16.394 56.186-45.182l56.9-150.53z" fill="#fff"/>
  <path style="color-rendering:auto;text-decoration-color:#000000;color:#000000;isolation:auto;mix-blend-mode:normal;shape-rendering:auto;solid-color:#000000;block-progression:tb;text-decoration-line:none;text-decoration-style:solid;image-rendering:auto;white-space:normal;text-indent:0;text-transform:none" d="m260.95 400.54h-0.004c-3.4195 0.0589-6.3105 1.4849-8.748 3.7266-2.4376 2.2417-4.4444 5.2936-6.1914 8.6719-3.3847 7.115-6.1885 14.406-8.8308 21.326l25.781 0.002-26.968 65.563 0.74805-0.002c8.53-0.023 14.892 0.39964 20.105-0.10156 5.2137-0.50121 9.3034-1.9652 13.062-5.7207 7.4918-7.4847 13.781-23.684 26.743-59.739l87.743-0.012 12.778-33.876c-45.992 0.028-90.224 0.10288-136.22 0.16216z" fill="#d60900"/>
  <path style="color-rendering:auto;text-decoration-color:#000000;color:#000000;isolation:auto;mix-blend-mode:normal;shape-rendering:auto;solid-color:#000000;block-progression:tb;text-decoration-line:none;text-decoration-style:solid;image-rendering:auto;white-space:normal;text-indent:0;text-transform:none" d="m348.29 443.31c-15.108-6.9724-27.935-5.926-37.652-0.61914-9.8084 5.3568-16.448 14.979-19.262 24.883-2.814 9.9036-1.8186 20.134 3.8223 26.686 5.5171 6.4077 17.614 9.0416 32.321 4.4968l-0.86661 2.3071 32.789-0.002 23.41-62.721-32.688-0.00065c-0.86037 2.2807-0.95373 2.5301-1.8742 4.9704z" fill="#d60900"/>
  <path style="color-rendering:auto;text-decoration-color:#000000;color:#000000;isolation:auto;mix-blend-mode:normal;shape-rendering:auto;solid-color:#000000;block-progression:tb;text-decoration-line:none;text-decoration-style:solid;image-rendering:auto;white-space:normal;text-indent:0;text-transform:none" d="m338.76 453.86c-1.3813-0.11928-2.8456-0.0307-4.1016 0.32422-1.256 0.35489-2.4032 0.96359-2.8164 2.0488l-7.9283 20.82c-1.3789 3.0481-0.0968 5.1681 2.8248 5.9999 4.652 0.31728 6.7481-0.38878 8.4316-4.8359l7.8906-20.844c0.50922-1.4506 0.31295-1.7314-0.69137-2.5293-0.93531-0.54494-2.228-0.8651-3.6094-0.98438z" fill="#fff"/>
  <path style="color-rendering:auto;text-decoration-color:#000000;color:#000000;isolation:auto;mix-blend-mode:normal;shape-rendering:auto;solid-color:#000000;block-progression:tb;text-decoration-line:none;text-decoration-style:solid;image-rendering:auto;white-space:normal;text-indent:0;text-transform:none" d="m382.81 449.17-11.144 29.752 28.788-0.0238 11.14-29.713z" fill="#d60900"/>
  <path style="color-rendering:auto;text-decoration-color:#000000;color:#000000;isolation:auto;mix-blend-mode:normal;shape-rendering:auto;solid-color:#000000;block-progression:tb;text-decoration-line:none;text-decoration-style:solid;image-rendering:auto;white-space:normal;text-indent:0;text-transform:none" d="m559.91 400.42-137.95-0.0178c-3.4229 0.39288-6.6497 2.1641-8.752 4.0566-2.4376 2.2417-4.4444 5.2916-6.1914 8.6699-3.494 6.7566-5.9571 14.849-8.4883 20.422l-0.32227 0.70703h23.342l-25.08 66.826c7.0247 0.009 14.612 0.001 21.637 0.0195 5.2377 0.0136 9.0534-3.1527 12.812-6.9082 7.4919-7.4848 13.789-23.882 26.752-59.938l89.489 0.0894z" fill="#d60900"/>
  <path style="color-rendering:auto;text-decoration-color:#000000;color:#000000;isolation:auto;mix-blend-mode:normal;shape-rendering:auto;solid-color:#000000;block-progression:tb;text-decoration-line:none;text-decoration-style:solid;image-rendering:auto;white-space:normal;text-indent:0;text-transform:none" d="m499.76 454.06c-1.3813-0.11928-2.8456-0.0307-4.1016 0.32422-1.256 0.35489-2.3476 0.98358-2.8144 2.0469l-9 20.5c-0.5781 1.3168-0.30032 2.6964 0.46875 3.7754 0.76906 1.079 2.008 1.9042 3.4277 2.2969 2.8395 0.78545 6.4709-0.28137 8.2734-4.6816l8.5-20.75c0.20648-0.50406 0.17424-1.0476-0.0566-1.4844-0.23089-0.43681-0.61829-0.77246-1.0859-1.0449-0.93531-0.54494-2.23-0.86314-3.6113-0.98243z" fill="#fff"/>
  <path style="color-rendering:auto;text-decoration-color:#000000;color:#000000;isolation:auto;mix-blend-mode:normal;shape-rendering:auto;solid-color:#000000;block-progression:tb;text-decoration-line:none;text-decoration-style:solid;image-rendering:auto;white-space:normal;text-indent:0;text-transform:none" d="m520.05 506.68-309.96-0.0234-12.505 33.365 296.12 0.1582c9.8366 0.13923 16.509-5.6413 20.632-12.648 3.1609-6.5402 5.7144-13.843 5.7145-20.852z" fill="#d60900"/>
  <path style="color-rendering:auto;text-decoration-color:#000000;color:#000000;isolation:auto;mix-blend-mode:normal;shape-rendering:auto;solid-color:#000000;block-progression:tb;text-decoration-line:none;text-decoration-style:solid;image-rendering:auto;white-space:normal;text-indent:0;text-transform:none" d="m511.07 443.34c-15.108-6.9724-27.935-5.926-37.652-0.61914-9.8084 5.3568-16.448 14.979-19.262 24.883-2.814 9.9036-1.8186 20.134 3.8223 26.686 5.5171 6.4077 17.614 9.0416 32.321 4.4968l-0.86661 2.3071 32.789-0.002 23.41-62.721-32.688-0.00065c-0.86037 2.2807-0.95373 2.5301-1.8742 4.9704z" fill="#d60900"/>
  <path style="color-rendering:auto;text-decoration-color:#000000;color:#000000;isolation:auto;mix-blend-mode:normal;shape-rendering:auto;solid-color:#000000;block-progression:tb;text-decoration-line:none;text-decoration-style:solid;image-rendering:auto;white-space:normal;text-indent:0;text-transform:none" d="m501.72 453.82c-1.3813-0.11928-2.8456-0.0307-4.1016 0.32422-1.256 0.35489-2.4032 0.96359-2.8164 2.0488l-7.9283 20.82c-1.3789 3.0481-0.0968 5.1681 2.8248 5.9999 4.652 0.31728 6.7481-0.38878 8.4316-4.8359l7.8906-20.844c0.50922-1.4506 0.31295-1.7314-0.69137-2.5293-0.93531-0.54494-2.228-0.8651-3.6094-0.98438z" fill="#fff"/>
 </g>
</svg>
